<svg xmlns="http://www.w3.org/2000/svg" viewBox="0 0 24 24" role="img" aria-label="AWS">
  <path fill="#e8ecff" d="M5.13 15.78c2.05 1.52 4.73 2.33 7.14 2.33 3.38 0 6.53-1.25 8.87-3.33.37-.33.07-.78-.4-.5-2.52 1.47-5.63 2.36-8.85 2.36-2.14 0-4.49-.44-6.64-1.35-.32-.13-.59.21-.32.49Zm12.58-1.15c-.26-.34-1.69-.16-2.34-.09-.2.02-.24-.15-.05-.29 1.25-.88 3.31-.63 3.55-.35.23.28-.06 2.34-1.23 3.32-.18.15-.35.07-.27-.12.26-.65.6-2.12.34-2.47Z"/>
  <path fill="#ffb347" d="M17.2 19.48c-1.38 1.02-3.37 1.56-5.08 1.56-2.4 0-4.57-.89-6.21-2.37-.13-.12-.01-.29.14-.2 1.77 1.03 3.95 1.65 6.2 1.65 1.52 0 3.18-.32 4.72-.98.23-.1.43.16.23.34Z"/>
  <path fill="#e8ecff" d="M7.47 12.2h1.77l-.89-2.31-.88 2.31Zm3.1 2.6h-1.05c-.17 0-.28-.09-.34-.23l-.47-1.22h-2.69l-.45 1.22c-.05.14-.18.23-.34.23H4.18c-.19 0-.24-.11-.19-.26l2.45-6.24c.07-.18.19-.27.37-.27h1.18c.18 0 .31.09.37.27l2.43 6.24c.06.16 0 .27-.22.27Zm2.82 0h-1.03c-.18 0-.29-.11-.29-.29V8.56c0-.18.11-.29.29-.29h1.03c.18 0 .29.11.29.29v5.95c0 .18-.11.29-.29.29Zm5.66-5.33-.87 3.6-.88-3.6c-.04-.15-.15-.24-.33-.24h-.87c-.2 0-.29.12-.24.31l1.38 5.05c.05.16.17.24.34.24h1.12c.17 0 .29-.08.34-.24l1.38-5.05c.05-.19-.03-.31-.23-.31h-.81c-.18 0-.29.09-.33.24Z"/>
</svg>
