<svg xmlns="http://www.w3.org/2000/svg" viewBox="0 0 24 24" role="img" aria-label="GitHub">
  <path fill="#e8ecff" d="M12 .5C5.65.5.5 5.66.5 12.02c0 5.09 3.29 9.4 7.86 10.92.57.1.78-.25.78-.56v-1.95c-3.2.7-3.88-1.36-3.88-1.36-.52-1.33-1.27-1.68-1.27-1.68-1.04-.71.08-.7.08-.7 1.15.08 1.76 1.18 1.76 1.18 1.02 1.75 2.68 1.25 3.33.96.1-.74.4-1.25.72-1.54-2.55-.29-5.23-1.28-5.23-5.69 0-1.26.45-2.28 1.18-3.08-.12-.3-.51-1.49.11-3.1 0 0 .97-.31 3.17 1.17a11.03 11.03 0 0 1 5.78 0c2.2-1.48 3.17-1.17 3.17-1.17.62 1.61.23 2.8.11 3.1.74.8 1.18 1.82 1.18 3.08 0 4.42-2.69 5.39-5.25 5.67.41.36.77 1.08.77 2.18v3.23c0 .31.2.67.79.56a11.52 11.52 0 0 0 7.85-10.92C23.5 5.66 18.35.5 12 .5Z"/>
</svg>
