<svg xmlns="http://www.w3.org/2000/svg" viewBox="0 0 24 24" role="img" aria-label="Kubernetes">
  <path fill="#7db1ff" d="M12 1.2 3.5 6.1v11.8L12 22.8l8.5-4.9V6.1L12 1.2Z"/>
  <path fill="#e8ecff" d="M12 4.2a1 1 0 0 0-1 1v1.57a5.17 5.17 0 0 0-1.92.8L8 6.5a1 1 0 1 0-1.41 1.41l1.1 1.1a5.17 5.17 0 0 0-.8 1.92H5.3a1 1 0 1 0 0 2h1.57c.16.69.44 1.34.8 1.92l-1.1 1.1a1 1 0 0 0 1.41 1.41l1.1-1.1c.58.36 1.23.64 1.92.8v1.57a1 1 0 1 0 2 0v-1.57a5.17 5.17 0 0 0 1.92-.8l1.1 1.1a1 1 0 0 0 1.41-1.41l-1.1-1.1c.36-.58.64-1.23.8-1.92h1.57a1 1 0 1 0 0-2H17.1a5.17 5.17 0 0 0-.8-1.92l1.1-1.1A1 1 0 1 0 16 6.5l-1.1 1.1a5.17 5.17 0 0 0-1.92-.8V5.2a1 1 0 0 0-1-1Zm0 4a2.93 2.93 0 1 1 0 5.86 2.93 2.93 0 0 1 0-5.86Z"/>
</svg>
